<mxfile host="app.diagrams.net" modified="2023-05-26T17:32:51.770Z" agent="Mozilla/5.0 (Windows NT 10.0; Win64; x64) AppleWebKit/537.36 (KHTML, like Gecko) Chrome/113.0.0.0 Safari/537.36 Edg/113.0.1774.50" etag="A-q7ZTovCvKRAvj4rkFr" version="21.3.4" type="github">
  <diagram name="Page-1" id="prMUxxAmeuHejbZRORMC">
    <mxGraphModel dx="1688" dy="638" grid="1" gridSize="10" guides="1" tooltips="1" connect="1" arrows="1" fold="1" page="1" pageScale="1" pageWidth="1169" pageHeight="827" math="0" shadow="0">
      <root>
        <mxCell id="0" />
        <mxCell id="1" parent="0" />
        <mxCell id="cSSA_NC-i2uy0tcbTHjU-1" value="Customer&lt;br&gt;" style="shape=umlActor;verticalLabelPosition=bottom;verticalAlign=top;html=1;" vertex="1" parent="1">
          <mxGeometry x="10" y="193.75" width="60" height="102.5" as="geometry" />
        </mxCell>
        <mxCell id="cSSA_NC-i2uy0tcbTHjU-2" value="Login" style="ellipse;whiteSpace=wrap;html=1;" vertex="1" parent="1">
          <mxGeometry x="240" y="414" width="120" height="50" as="geometry" />
        </mxCell>
        <mxCell id="cSSA_NC-i2uy0tcbTHjU-3" value="Browse menu" style="ellipse;whiteSpace=wrap;html=1;" vertex="1" parent="1">
          <mxGeometry x="110" y="160" width="120" height="50" as="geometry" />
        </mxCell>
        <mxCell id="cSSA_NC-i2uy0tcbTHjU-4" value="View bill" style="ellipse;whiteSpace=wrap;html=1;" vertex="1" parent="1">
          <mxGeometry x="110" y="220" width="120" height="50" as="geometry" />
        </mxCell>
        <mxCell id="cSSA_NC-i2uy0tcbTHjU-5" value="Order pizza" style="ellipse;whiteSpace=wrap;html=1;" vertex="1" parent="1">
          <mxGeometry x="110" y="280" width="120" height="50" as="geometry" />
        </mxCell>
        <mxCell id="cSSA_NC-i2uy0tcbTHjU-6" value="Track order" style="ellipse;whiteSpace=wrap;html=1;" vertex="1" parent="1">
          <mxGeometry x="110" y="340" width="120" height="50" as="geometry" />
        </mxCell>
        <mxCell id="cSSA_NC-i2uy0tcbTHjU-12" value="" style="edgeStyle=none;html=1;endArrow=none;verticalAlign=bottom;rounded=0;entryX=0.002;entryY=0.6;entryDx=0;entryDy=0;entryPerimeter=0;" edge="1" parent="1" target="cSSA_NC-i2uy0tcbTHjU-3">
          <mxGeometry width="160" relative="1" as="geometry">
            <mxPoint x="40" y="250" as="sourcePoint" />
            <mxPoint x="200" y="250" as="targetPoint" />
          </mxGeometry>
        </mxCell>
        <mxCell id="cSSA_NC-i2uy0tcbTHjU-13" value="" style="edgeStyle=none;html=1;endArrow=none;verticalAlign=bottom;rounded=0;entryX=-0.017;entryY=0.429;entryDx=0;entryDy=0;entryPerimeter=0;" edge="1" parent="1" target="cSSA_NC-i2uy0tcbTHjU-4">
          <mxGeometry width="160" relative="1" as="geometry">
            <mxPoint x="40" y="250" as="sourcePoint" />
            <mxPoint x="120" y="200" as="targetPoint" />
          </mxGeometry>
        </mxCell>
        <mxCell id="cSSA_NC-i2uy0tcbTHjU-14" value="" style="edgeStyle=none;html=1;endArrow=none;verticalAlign=bottom;rounded=0;entryX=0;entryY=0.5;entryDx=0;entryDy=0;exitX=0.51;exitY=0.56;exitDx=0;exitDy=0;exitPerimeter=0;" edge="1" parent="1" source="cSSA_NC-i2uy0tcbTHjU-1" target="cSSA_NC-i2uy0tcbTHjU-5">
          <mxGeometry width="160" relative="1" as="geometry">
            <mxPoint x="60" y="270" as="sourcePoint" />
            <mxPoint x="130" y="210" as="targetPoint" />
          </mxGeometry>
        </mxCell>
        <mxCell id="cSSA_NC-i2uy0tcbTHjU-15" value="" style="edgeStyle=none;html=1;endArrow=none;verticalAlign=bottom;rounded=0;entryX=0.102;entryY=0.2;entryDx=0;entryDy=0;entryPerimeter=0;exitX=0.452;exitY=0.582;exitDx=0;exitDy=0;exitPerimeter=0;" edge="1" parent="1" source="cSSA_NC-i2uy0tcbTHjU-1" target="cSSA_NC-i2uy0tcbTHjU-6">
          <mxGeometry width="160" relative="1" as="geometry">
            <mxPoint x="70" y="280" as="sourcePoint" />
            <mxPoint x="140" y="220" as="targetPoint" />
          </mxGeometry>
        </mxCell>
        <mxCell id="cSSA_NC-i2uy0tcbTHjU-20" value="Admin&lt;br&gt;" style="shape=umlActor;verticalLabelPosition=bottom;verticalAlign=top;html=1;outlineConnect=0;" vertex="1" parent="1">
          <mxGeometry x="10" y="480" width="65" height="110" as="geometry" />
        </mxCell>
        <mxCell id="cSSA_NC-i2uy0tcbTHjU-22" value="" style="edgeStyle=none;html=1;endArrow=none;verticalAlign=bottom;rounded=0;entryX=0.055;entryY=0.697;entryDx=0;entryDy=0;entryPerimeter=0;" edge="1" parent="1" source="cSSA_NC-i2uy0tcbTHjU-20" target="cSSA_NC-i2uy0tcbTHjU-25">
          <mxGeometry width="160" relative="1" as="geometry">
            <mxPoint x="50" y="510" as="sourcePoint" />
            <mxPoint x="210" y="510" as="targetPoint" />
          </mxGeometry>
        </mxCell>
        <mxCell id="cSSA_NC-i2uy0tcbTHjU-25" value="Browse menu" style="ellipse;whiteSpace=wrap;html=1;" vertex="1" parent="1">
          <mxGeometry x="90" y="450" width="120" height="50" as="geometry" />
        </mxCell>
        <mxCell id="cSSA_NC-i2uy0tcbTHjU-26" value="Browse menu" style="ellipse;whiteSpace=wrap;html=1;" vertex="1" parent="1">
          <mxGeometry x="90" y="570" width="120" height="50" as="geometry" />
        </mxCell>
        <mxCell id="cSSA_NC-i2uy0tcbTHjU-27" value="Browse menu" style="ellipse;whiteSpace=wrap;html=1;" vertex="1" parent="1">
          <mxGeometry x="90" y="510" width="120" height="50" as="geometry" />
        </mxCell>
        <mxCell id="cSSA_NC-i2uy0tcbTHjU-29" value="" style="edgeStyle=none;html=1;endArrow=none;verticalAlign=bottom;rounded=0;entryX=0;entryY=0.5;entryDx=0;entryDy=0;" edge="1" parent="1" source="cSSA_NC-i2uy0tcbTHjU-20" target="cSSA_NC-i2uy0tcbTHjU-27">
          <mxGeometry width="160" relative="1" as="geometry">
            <mxPoint x="50" y="544.5" as="sourcePoint" />
            <mxPoint x="70" y="525.5" as="targetPoint" />
          </mxGeometry>
        </mxCell>
        <mxCell id="cSSA_NC-i2uy0tcbTHjU-30" value="" style="edgeStyle=none;html=1;endArrow=none;verticalAlign=bottom;rounded=0;" edge="1" parent="1" source="cSSA_NC-i2uy0tcbTHjU-20" target="cSSA_NC-i2uy0tcbTHjU-26">
          <mxGeometry width="160" relative="1" as="geometry">
            <mxPoint x="85" y="546" as="sourcePoint" />
            <mxPoint x="97" y="546" as="targetPoint" />
          </mxGeometry>
        </mxCell>
        <mxCell id="cSSA_NC-i2uy0tcbTHjU-33" value="Chef&lt;br&gt;" style="shape=umlActor;verticalLabelPosition=bottom;verticalAlign=top;html=1;" vertex="1" parent="1">
          <mxGeometry x="770" y="140" width="60" height="100" as="geometry" />
        </mxCell>
        <mxCell id="cSSA_NC-i2uy0tcbTHjU-34" value="Prepare order" style="ellipse;whiteSpace=wrap;html=1;" vertex="1" parent="1">
          <mxGeometry x="600" y="193.75" width="120" height="50" as="geometry" />
        </mxCell>
        <mxCell id="cSSA_NC-i2uy0tcbTHjU-35" value="View order" style="ellipse;whiteSpace=wrap;html=1;" vertex="1" parent="1">
          <mxGeometry x="600" y="130" width="120" height="50" as="geometry" />
        </mxCell>
        <mxCell id="cSSA_NC-i2uy0tcbTHjU-36" value="Recieve order" style="ellipse;whiteSpace=wrap;html=1;" vertex="1" parent="1">
          <mxGeometry x="465" y="180" width="120" height="50" as="geometry" />
        </mxCell>
        <mxCell id="cSSA_NC-i2uy0tcbTHjU-37" value="" style="edgeStyle=none;html=1;endArrow=none;verticalAlign=bottom;rounded=0;exitX=1;exitY=0.325;exitDx=0;exitDy=0;exitPerimeter=0;" edge="1" parent="1" source="cSSA_NC-i2uy0tcbTHjU-34" target="cSSA_NC-i2uy0tcbTHjU-33">
          <mxGeometry width="160" relative="1" as="geometry">
            <mxPoint x="660" y="210" as="sourcePoint" />
            <mxPoint x="820" y="210" as="targetPoint" />
          </mxGeometry>
        </mxCell>
        <mxCell id="cSSA_NC-i2uy0tcbTHjU-39" value="" style="edgeStyle=none;html=1;endArrow=none;verticalAlign=bottom;rounded=0;exitX=1.019;exitY=0.423;exitDx=0;exitDy=0;exitPerimeter=0;" edge="1" parent="1" source="cSSA_NC-i2uy0tcbTHjU-35">
          <mxGeometry width="160" relative="1" as="geometry">
            <mxPoint x="670" y="160" as="sourcePoint" />
            <mxPoint x="760" y="160" as="targetPoint" />
          </mxGeometry>
        </mxCell>
        <mxCell id="cSSA_NC-i2uy0tcbTHjU-41" value="&amp;lt;&amp;lt;include&amp;gt;&amp;gt;" style="edgeStyle=none;html=1;endArrow=open;verticalAlign=bottom;dashed=1;labelBackgroundColor=none;rounded=0;entryX=0.473;entryY=-0.086;entryDx=0;entryDy=0;entryPerimeter=0;exitX=-0.033;exitY=0.514;exitDx=0;exitDy=0;exitPerimeter=0;" edge="1" parent="1" source="cSSA_NC-i2uy0tcbTHjU-35" target="cSSA_NC-i2uy0tcbTHjU-36">
          <mxGeometry width="160" relative="1" as="geometry">
            <mxPoint x="425" y="140" as="sourcePoint" />
            <mxPoint x="585" y="140" as="targetPoint" />
          </mxGeometry>
        </mxCell>
        <mxCell id="cSSA_NC-i2uy0tcbTHjU-42" value="&amp;lt;&amp;lt;include&amp;gt;&amp;gt;" style="edgeStyle=none;html=1;endArrow=open;verticalAlign=bottom;dashed=1;labelBackgroundColor=none;rounded=0;entryX=0.801;entryY=0.966;entryDx=0;entryDy=0;entryPerimeter=0;exitX=0.071;exitY=0.759;exitDx=0;exitDy=0;exitPerimeter=0;" edge="1" parent="1" source="cSSA_NC-i2uy0tcbTHjU-34" target="cSSA_NC-i2uy0tcbTHjU-36">
          <mxGeometry x="0.0885" y="22" width="160" relative="1" as="geometry">
            <mxPoint x="606" y="235" as="sourcePoint" />
            <mxPoint x="532" y="255" as="targetPoint" />
            <Array as="points">
              <mxPoint x="580" y="228" />
            </Array>
            <mxPoint as="offset" />
          </mxGeometry>
        </mxCell>
        <mxCell id="cSSA_NC-i2uy0tcbTHjU-43" value="Delivery Driver&lt;br&gt;" style="shape=umlActor;verticalLabelPosition=bottom;verticalAlign=top;html=1;" vertex="1" parent="1">
          <mxGeometry x="770" y="364" width="60" height="100" as="geometry" />
        </mxCell>
        <mxCell id="cSSA_NC-i2uy0tcbTHjU-44" value="Delivers on time&lt;br&gt;" style="ellipse;whiteSpace=wrap;html=1;" vertex="1" parent="1">
          <mxGeometry x="540" y="460" width="120" height="50" as="geometry" />
        </mxCell>
        <mxCell id="cSSA_NC-i2uy0tcbTHjU-45" value="&amp;lt;&amp;lt;include&amp;gt;&amp;gt;" style="edgeStyle=none;html=1;endArrow=open;verticalAlign=bottom;dashed=1;labelBackgroundColor=none;rounded=0;entryX=0.468;entryY=1.011;entryDx=0;entryDy=0;entryPerimeter=0;exitX=0.281;exitY=0.006;exitDx=0;exitDy=0;exitPerimeter=0;" edge="1" parent="1" source="cSSA_NC-i2uy0tcbTHjU-44" target="cSSA_NC-i2uy0tcbTHjU-36">
          <mxGeometry width="160" relative="1" as="geometry">
            <mxPoint x="560" y="410" as="sourcePoint" />
            <mxPoint x="720" y="410" as="targetPoint" />
          </mxGeometry>
        </mxCell>
        <mxCell id="cSSA_NC-i2uy0tcbTHjU-46" value="" style="edgeStyle=none;html=1;endArrow=none;verticalAlign=bottom;rounded=0;" edge="1" parent="1" source="cSSA_NC-i2uy0tcbTHjU-44" target="cSSA_NC-i2uy0tcbTHjU-43">
          <mxGeometry width="160" relative="1" as="geometry">
            <mxPoint x="560" y="410" as="sourcePoint" />
            <mxPoint x="720" y="410" as="targetPoint" />
          </mxGeometry>
        </mxCell>
        <mxCell id="cSSA_NC-i2uy0tcbTHjU-47" value="" style="edgeStyle=none;html=1;endArrow=block;endFill=0;endSize=12;verticalAlign=bottom;rounded=0;" edge="1" parent="1">
          <mxGeometry width="160" relative="1" as="geometry">
            <mxPoint x="560" y="410" as="sourcePoint" />
            <mxPoint x="720" y="410" as="targetPoint" />
          </mxGeometry>
        </mxCell>
        <mxCell id="cSSA_NC-i2uy0tcbTHjU-48" value="&amp;lt;&amp;lt;include&amp;gt;&amp;gt;" style="edgeStyle=none;html=1;endArrow=open;verticalAlign=bottom;dashed=1;labelBackgroundColor=none;rounded=0;exitX=1.012;exitY=0.417;exitDx=0;exitDy=0;exitPerimeter=0;entryX=0.619;entryY=-0.034;entryDx=0;entryDy=0;entryPerimeter=0;" edge="1" parent="1" source="cSSA_NC-i2uy0tcbTHjU-3" target="cSSA_NC-i2uy0tcbTHjU-2">
          <mxGeometry width="160" relative="1" as="geometry">
            <mxPoint x="220" y="189.71" as="sourcePoint" />
            <mxPoint x="380" y="189.71" as="targetPoint" />
          </mxGeometry>
        </mxCell>
        <mxCell id="cSSA_NC-i2uy0tcbTHjU-49" value="&amp;lt;&amp;lt;include&amp;gt;&amp;gt;" style="edgeStyle=none;html=1;endArrow=open;verticalAlign=bottom;dashed=1;labelBackgroundColor=none;rounded=0;exitX=1;exitY=0.5;exitDx=0;exitDy=0;entryX=0.471;entryY=-0.011;entryDx=0;entryDy=0;entryPerimeter=0;" edge="1" parent="1" source="cSSA_NC-i2uy0tcbTHjU-4" target="cSSA_NC-i2uy0tcbTHjU-2">
          <mxGeometry width="160" relative="1" as="geometry">
            <mxPoint x="230" y="199.71" as="sourcePoint" />
            <mxPoint x="390" y="199.71" as="targetPoint" />
          </mxGeometry>
        </mxCell>
        <mxCell id="cSSA_NC-i2uy0tcbTHjU-50" value="&amp;lt;&amp;lt;include&amp;gt;&amp;gt;" style="edgeStyle=none;html=1;endArrow=open;verticalAlign=bottom;dashed=1;labelBackgroundColor=none;rounded=0;exitX=1;exitY=0.4;exitDx=0;exitDy=0;exitPerimeter=0;entryX=0.348;entryY=0.069;entryDx=0;entryDy=0;entryPerimeter=0;" edge="1" parent="1" source="cSSA_NC-i2uy0tcbTHjU-5" target="cSSA_NC-i2uy0tcbTHjU-2">
          <mxGeometry width="160" relative="1" as="geometry">
            <mxPoint x="240" y="209.71" as="sourcePoint" />
            <mxPoint x="400" y="209.71" as="targetPoint" />
          </mxGeometry>
        </mxCell>
        <mxCell id="cSSA_NC-i2uy0tcbTHjU-51" value="&amp;lt;&amp;lt;include&amp;gt;&amp;gt;" style="edgeStyle=none;html=1;endArrow=open;verticalAlign=bottom;dashed=1;labelBackgroundColor=none;rounded=0;exitX=1;exitY=0.4;exitDx=0;exitDy=0;exitPerimeter=0;entryX=0.181;entryY=0.034;entryDx=0;entryDy=0;entryPerimeter=0;" edge="1" parent="1" source="cSSA_NC-i2uy0tcbTHjU-6" target="cSSA_NC-i2uy0tcbTHjU-2">
          <mxGeometry width="160" relative="1" as="geometry">
            <mxPoint x="250" y="219.71" as="sourcePoint" />
            <mxPoint x="410" y="219.71" as="targetPoint" />
          </mxGeometry>
        </mxCell>
        <mxCell id="cSSA_NC-i2uy0tcbTHjU-52" value="&amp;lt;&amp;lt;include&amp;gt;&amp;gt;" style="edgeStyle=none;html=1;endArrow=open;verticalAlign=bottom;dashed=1;labelBackgroundColor=none;rounded=0;" edge="1" parent="1" source="cSSA_NC-i2uy0tcbTHjU-25" target="cSSA_NC-i2uy0tcbTHjU-2">
          <mxGeometry width="160" relative="1" as="geometry">
            <mxPoint x="260" y="229.71" as="sourcePoint" />
            <mxPoint x="420" y="229.71" as="targetPoint" />
          </mxGeometry>
        </mxCell>
        <mxCell id="cSSA_NC-i2uy0tcbTHjU-53" value="&amp;lt;&amp;lt;include&amp;gt;&amp;gt;" style="edgeStyle=none;html=1;endArrow=open;verticalAlign=bottom;dashed=1;labelBackgroundColor=none;rounded=0;exitX=0.998;exitY=0.331;exitDx=0;exitDy=0;exitPerimeter=0;entryX=0.333;entryY=0.983;entryDx=0;entryDy=0;entryPerimeter=0;" edge="1" parent="1" source="cSSA_NC-i2uy0tcbTHjU-27" target="cSSA_NC-i2uy0tcbTHjU-2">
          <mxGeometry width="160" relative="1" as="geometry">
            <mxPoint x="270" y="239.71" as="sourcePoint" />
            <mxPoint x="430" y="239.71" as="targetPoint" />
          </mxGeometry>
        </mxCell>
        <mxCell id="cSSA_NC-i2uy0tcbTHjU-54" value="&amp;lt;&amp;lt;include&amp;gt;&amp;gt;" style="edgeStyle=none;html=1;endArrow=open;verticalAlign=bottom;dashed=1;labelBackgroundColor=none;rounded=0;entryX=0.59;entryY=0.96;entryDx=0;entryDy=0;entryPerimeter=0;exitX=0.988;exitY=0.309;exitDx=0;exitDy=0;exitPerimeter=0;" edge="1" parent="1" source="cSSA_NC-i2uy0tcbTHjU-26" target="cSSA_NC-i2uy0tcbTHjU-2">
          <mxGeometry width="160" relative="1" as="geometry">
            <mxPoint x="200" y="600" as="sourcePoint" />
            <mxPoint x="360" y="600" as="targetPoint" />
          </mxGeometry>
        </mxCell>
        <object placeholders="1" c4Name="Market&#xa;" c4Type="SystemScopeBoundary" c4Application="Market" label="&lt;font style=&quot;font-size: 16px&quot;&gt;&lt;b&gt;&lt;div style=&quot;text-align: left&quot;&gt;%c4Name%&lt;/div&gt;&lt;/b&gt;&lt;/font&gt;&lt;div style=&quot;text-align: left&quot;&gt;[%c4Application%]&lt;/div&gt;" id="cSSA_NC-i2uy0tcbTHjU-58">
          <mxCell style="rounded=1;fontSize=11;whiteSpace=wrap;html=1;dashed=1;arcSize=20;fillColor=none;strokeColor=#666666;fontColor=#333333;labelBackgroundColor=none;align=left;verticalAlign=bottom;labelBorderColor=none;spacingTop=0;spacing=10;dashPattern=8 4;metaEdit=1;rotatable=0;perimeter=rectanglePerimeter;noLabel=0;labelPadding=0;allowArrows=0;connectable=0;expand=0;recursiveResize=0;editable=1;pointerEvents=0;absoluteArcSize=1;points=[[0.25,0,0],[0.5,0,0],[0.75,0,0],[1,0.25,0],[1,0.5,0],[1,0.75,0],[0.75,1,0],[0.5,1,0],[0.25,1,0],[0,0.75,0],[0,0.5,0],[0,0.25,0]];" vertex="1" parent="1">
            <mxGeometry x="80" y="130" width="680" height="540" as="geometry" />
          </mxCell>
        </object>
      </root>
    </mxGraphModel>
  </diagram>
</mxfile>
